<svg width="108" height="83" viewBox="0 0 108 83" fill="none" xmlns="http://www.w3.org/2000/svg">
<path d="M16.9287 12.9691C40.0177 4.48344 51.7013 7.45066 58.1692 12.2657C64.2754 16.8405 65.3439 22.8075 72.6092 26.1716C81.8975 30.4908 93.034 26.6711 101.296 22.5337C98.2633 37.8272 95.1861 53.1096 92.1535 68.4031C81.2695 74.6859 67.8095 80.2755 59.1673 74.8676C52.8877 70.8995 53.5767 63.9713 47.6933 58.9521C42.0377 54.1399 30.9883 51.631 7.32928 61.2744C8.52793 55.0734 9.75787 48.9303 11.0012 42.7404C12.9726 32.8322 14.9573 22.8773 16.9287 12.9691Z" fill="white" stroke="#1F1F22" stroke-miterlimit="10"/>
<path d="M43.5516 55.8751C45.4861 47.8745 47.3036 39.3076 48.8926 30.2439C50.114 23.1365 51.1164 16.3153 51.8997 9.78027C53.6988 10.4298 56.1826 11.5938 58.6933 13.6427C61.5098 15.9153 63.251 18.4042 64.3287 20.14C62.5203 25.7331 60.7594 31.4845 59.1064 37.5071C56.421 47.0258 54.1653 56.165 52.2963 64.9141C51.7568 63.5581 50.7132 61.5381 48.8737 59.5611C46.9051 57.5515 44.8645 56.4507 43.5516 55.8751Z" fill="#1F1F22" stroke="#1F1F22" stroke-miterlimit="10"/>
<path d="M95.3352 54.9027C88.0485 56.04 77.4737 56.6502 66.2072 52.6491C55.9526 49.0085 52.6416 44.2465 42.902 40.8401C36.0626 38.4811 25.6972 36.6175 10.9941 40.0454C11.5776 37.0994 12.1747 34.1053 12.713 31.1478C13.1124 29.0317 13.5435 26.9753 13.9429 24.8592C31.1526 21.8112 42.1428 25.0716 49.0016 28.5702C57.4553 32.9387 60.2836 38.0421 69.5809 41.6454C80.2696 45.809 90.7352 44.5521 97.6647 42.9628C97.2741 44.8748 96.9287 46.7983 96.5516 48.6622C96.1657 50.7302 95.7346 52.7866 95.3352 54.9027Z" fill="#1F1F22" stroke="#1F1F22" stroke-width="1.2854" stroke-miterlimit="10"/>
<path d="M67.9149 23.965C66.936 25.7172 65.8951 27.8532 64.9659 30.2666C64.2146 32.2253 63.6949 34.0421 63.3177 35.6949C65.2074 35.268 67.1816 34.7126 69.2717 34.0862C74.0935 32.5942 78.3443 30.7601 81.9888 28.8746C80.2058 28.9287 77.3705 28.8201 74.1641 27.6707C71.212 26.6345 69.1731 25.0776 67.9149 23.965Z" fill="#1F1F22" stroke="#1F1F22" stroke-width="1.2854" stroke-miterlimit="10"/>
<path d="M55.6379 68.7531C56.1885 66.6641 56.8362 64.4015 57.5988 62.0686C58.3747 59.6895 59.1993 57.471 60.0153 55.4482C60.4719 56.502 61.1635 58.0596 62.2002 59.9012C63.0819 61.4567 63.8614 62.5416 64.0165 62.8276C66.8253 67.5845 68.9528 72.0727 70.496 76.1183C69.625 76.3464 64.4567 77.6799 59.9558 74.5294C57.2914 72.5789 56.0991 69.9565 55.6379 68.7531Z" fill="#1F1F22" stroke="#1F1F22" stroke-width="1.3859" stroke-miterlimit="10"/>
<path d="M99.8094 32.1484C95.4924 33.5225 90.9299 35.0854 86.1713 36.9998C83.3546 38.148 80.6271 39.3185 78.0471 40.4757C80.678 40.9827 83.8984 41.4367 87.6496 41.3727C91.7716 41.3512 95.3883 40.7532 98.2055 40.1056C98.4499 38.9155 98.7077 37.6786 98.9074 36.4773C99.2185 35.0537 99.5296 33.63 99.8094 32.1484Z" fill="#1F1F22" stroke="#1F1F22" stroke-width="1.2854" stroke-miterlimit="10"/>
<path d="M15.1578 16.2794C18.1258 15.3431 26.2254 14.5283 31.7427 17.0469C35.1595 18.6259 37.4912 20.7994 38.9122 22.4361C35.5774 21.5932 31.5443 20.8295 26.9124 20.4766C22.1184 20.1849 17.8161 20.3751 14.2664 20.8067C14.3694 20.2706 14.459 19.7822 14.562 19.2461C14.7411 18.2693 14.9787 17.2562 15.1578 16.2794Z" fill="#1F1F22" stroke="#1F1F22" stroke-width="1.2854" stroke-miterlimit="10"/>
<path d="M93.2312 68.1167C89.6721 67.5761 84.9653 66.4922 79.8295 64.0287C75.8866 62.12 72.7531 59.9066 70.4476 58.0035C73.5479 58.6319 77.1204 59.125 81.0705 59.3063C86.1993 59.5811 90.8506 59.3288 94.7955 58.8476C94.72 59.7949 94.6446 60.7422 94.5423 61.7845C94.212 64.1425 93.7555 66.2653 93.2312 68.1167Z" fill="#1F1F22" stroke="#1F1F22" stroke-width="1.2854" stroke-miterlimit="10"/>
<path d="M38.6143 8.09052C39.9489 7.88097 41.5919 7.74839 43.4466 7.86591C45.7683 8.00129 47.7202 8.439 49.1789 8.9509C48.0259 14.1377 46.886 19.2785 45.733 24.4653C44.8668 21.8818 43.8375 19.2084 42.6011 16.4339C41.2852 13.4423 39.9606 10.6458 38.6143 8.09052Z" fill="#1F1F22" stroke="#1F1F22" stroke-miterlimit="10"/>
<path d="M41.5202 42.7484C41.113 46.6537 40.6927 50.6052 40.3298 54.5216C38.5783 54.1839 36.5219 53.9185 34.1649 53.875C31.5736 53.8225 29.3143 54.1002 27.422 54.4199C29.1485 52.0307 31.8292 48.7911 35.8546 45.9858C37.874 44.56 39.8318 43.5146 41.5202 42.7484Z" fill="#1F1F22" stroke="#1F1F22" stroke-width="1.2854" stroke-miterlimit="10"/>
<path d="M15.4671 40.7792C17.5841 40.8602 18.5878 41.5075 21.3222 42.0899C22.4897 42.3313 24.2031 42.6592 26.3645 42.7512C22.9801 44.4391 19.3563 46.4645 15.582 48.8495C12.9609 50.5292 10.5306 52.2068 8.33548 53.8934C9.13448 49.7739 9.99113 45.6191 10.7901 41.4996C11.8948 41.1297 13.4965 40.6851 15.4671 40.7792Z" fill="#1F1F22" stroke="#1F1F22" stroke-miterlimit="10"/>
</svg>
