<svg width="77" height="55" viewBox="0 0 77 55" fill="none" xmlns="http://www.w3.org/2000/svg">
<path d="M19.4447 25.8262C18.9624 27.5224 19.2518 30.7696 19.8305 37.2155C20.1681 40.802 20.3128 42.5952 20.6505 43.5403C22.8932 49.865 31.9365 53.7422 39.557 53.718C47.3222 53.6937 56.3896 49.5984 59.1387 42.5467C60.0069 40.2931 60.0551 38.2333 60.1275 35.0346C60.1998 32.1509 60.3445 25.3657 57.9089 21.5854C51.4218 11.4804 22.1938 16.4239 19.4447 25.8262Z" fill="black" stroke="black" stroke-width="0.9733" stroke-miterlimit="10"/>
<path d="M0.875744 18.5085C0.94809 15.9156 6.01234 15.4309 19.2276 8.93654C30.9236 3.19339 30.6342 1.7879 35.1438 1.15785C40.7386 0.382402 42.065 2.44218 59.0423 7.82184C69.6772 11.1902 73.5839 11.796 73.8733 14.0496C74.1627 16.4002 70.2318 17.8057 62.1532 23.5973C50.3848 32.0303 51.4941 34.1628 46.671 35.5925C42.6679 36.7799 40.0393 35.8833 20.361 28.25C4.25191 22.0464 0.827513 20.6409 0.875744 18.5085Z" fill="black" stroke="white" stroke-width="0.9733" stroke-miterlimit="10"/>
<path d="M72.4746 26.8934C71.2929 27.063 70.8106 30.916 70.9794 33.727C71.1482 36.223 71.9923 40.1972 73.1257 40.2214C74.4521 40.2456 76.4295 35.1083 75.1273 30.7222C74.6209 29.0017 73.4151 26.748 72.4746 26.8934Z" fill="black" stroke="black" stroke-width="0.9733" stroke-miterlimit="10"/>
<path d="M73.1739 14.0742C72.9087 18.63 72.6193 23.1857 72.354 27.7415" stroke="black" stroke-width="0.9733" stroke-miterlimit="10"/>
<path d="M73.1016 28.9043C73.5356 29.607 74.3314 31.1337 74.4279 33.2419C74.5485 35.4714 73.8009 37.1676 73.4392 37.9189" stroke="white" stroke-width="0.9733" stroke-miterlimit="10"/>
</svg>
