<svg width="91" height="64" viewBox="0 0 91 64" fill="none" xmlns="http://www.w3.org/2000/svg">
<path d="M24.6006 40.0959C11.9436 43.1894 -0.0741509 52.1262 1.07648 56.4228C1.92881 59.6023 9.3014 58.0555 31.7601 60.3756C51.4061 62.395 55.5399 64.5863 62.8273 61.3639C73.0551 56.8095 80.6834 45.6384 78.4674 41.2559C76.8906 38.1624 71.3079 40.3537 54.3466 40.3966C35.7234 40.4396 33.6778 37.8617 24.6006 40.0959Z" fill="#F3F3F5" stroke="#1F1F22" stroke-width="0.9816" stroke-miterlimit="10"/>
<path d="M25.7938 37.6894C13.1368 40.7829 1.11909 49.7627 2.26972 54.0593C3.12204 57.2388 10.4946 55.692 32.9533 58.0121C52.5994 60.0315 56.7331 62.2228 64.0205 59.0004C74.2484 54.446 81.8767 43.2749 79.6606 38.8924C78.0838 35.7989 72.5011 37.9902 55.5399 38.0331C36.9166 38.0331 34.9137 35.4552 25.7938 37.6894Z" fill="#F3F3F5" stroke="#1F1F22" stroke-width="0.9816" stroke-miterlimit="10"/>
<path d="M33.5073 6.53935C37.7263 1.89906 43.096 2.54355 62.4437 1.81313C82.8142 1.03975 87.4593 -0.0343919 89.4197 3.18803C91.5079 6.58231 87.5446 9.76177 84.1353 24.8427C81.9192 34.6818 82.9846 36.0138 80.8112 38.4198C76.3365 43.4898 69.3901 40.3963 50.1276 40.1814C32.655 40.0096 25.8791 42.4156 23.5352 38.4198C22.555 36.7872 23.109 35.3693 28.436 19.6868C32.3567 8.17204 32.4846 7.65646 33.5073 6.53935Z" fill="#1F1F22" stroke="#1F1F22" stroke-miterlimit="10"/>
<path d="M37.2149 6.53961C41.4339 2.71567 45.9086 4.82098 60.0998 4.77802C76.7627 4.73505 82.729 1.77042 85.1155 5.37954C86.2661 7.09816 85.3712 8.47306 81.5783 22.308C78.7657 32.7057 78.7657 33.6939 77.2741 35.1118C73.0551 39.1076 67.6855 36.4437 53.8778 35.9711C36.8314 35.3695 29.331 38.8927 27.1149 34.9829C26.22 33.3931 27.1149 32.2331 31.547 20.1597C35.6808 8.85975 35.5955 8.0434 37.2149 6.53961Z" fill="white" stroke="#1F1F22" stroke-miterlimit="10"/>
<path d="M22.9385 43.962C18.4639 45.0362 18.0377 45.5947 18.0377 45.9384C18.0803 47.3993 26.9018 47.2274 41.6896 49.5046C55.2842 51.6099 61.5914 53.8441 65.9382 49.8913C66.1513 49.7194 68.9639 47.0985 68.2821 44.9502C67.5576 42.802 63.6796 42.716 48.7213 42.2004C40.1128 41.8997 32.5272 41.6419 22.9385 43.962Z" fill="#1F1F22" stroke="#1F1F22" stroke-miterlimit="10"/>
<path d="M27.4558 50.2783C26.6035 50.6221 25.0267 51.4384 25.112 52.2547C25.1972 53.1141 27.2002 53.3289 32.5272 54.403C38.7065 55.649 40.539 56.2935 41.5192 55.1764C42.201 54.403 42.2436 53.0281 41.7323 52.2118C41.0078 51.0517 39.431 51.4384 35.8512 51.0087C31.2061 50.4932 29.885 49.3331 27.4558 50.2783Z" fill="#1F1F22" stroke="#1F1F22" stroke-miterlimit="10"/>
<path d="M71.9471 44.177C71.9471 44.8645 74.1205 45.8956 74.8876 45.1652C75.3138 44.7785 75.3138 43.8333 74.8876 43.4036C74.1205 42.5873 71.9471 43.5325 71.9471 44.177Z" fill="#1F1F22" stroke="#1F1F22" stroke-miterlimit="10"/>
</svg>
