<svg width="54" height="54" viewBox="0 0 54 54" fill="none" xmlns="http://www.w3.org/2000/svg">
<path d="M47.25 10.125H6.75C5.85489 10.125 4.99645 10.4806 4.36351 11.1135C3.73058 11.7464 3.375 12.6049 3.375 13.5V40.5C3.375 41.3951 3.73058 42.2535 4.36351 42.8865C4.99645 43.5194 5.85489 43.875 6.75 43.875H47.25C48.1451 43.875 49.0035 43.5194 49.6365 42.8865C50.2694 42.2535 50.625 41.3951 50.625 40.5V13.5C50.625 12.6049 50.2694 11.7464 49.6365 11.1135C49.0035 10.4806 48.1451 10.125 47.25 10.125ZM43.5375 13.5L27 24.9412L10.4625 13.5H43.5375ZM6.75 40.5V15.0356L26.0381 28.3837C26.3206 28.5797 26.6562 28.6847 27 28.6847C27.3438 28.6847 27.6794 28.5797 27.9619 28.3837L47.25 15.0356V40.5H6.75Z" fill="#1F1F22"/>
</svg>
