<svg width="111" height="74" viewBox="0 0 111 74" fill="none" xmlns="http://www.w3.org/2000/svg">
<path d="M90.1561 65.54C92.425 64.101 91.0936 63.4633 98.2242 53.3773C102.221 47.6999 104.835 44.7582 103.765 42.3081C103.321 41.2661 101.829 40.3396 98.8747 38.4373C97.1174 37.2919 95.5692 36.4635 94.4623 35.8898C100.228 29.0737 101.06 27.0669 100.654 26.6365C100.298 26.2345 98.9034 27.0654 96.1442 28.2214C92.8641 29.6002 90.0222 30.4465 88.088 30.9661C76.9757 22.5869 67.9341 17.3012 61.7904 14.016C58.7431 12.3875 55.1205 10.6233 51.3218 11.7681C48.3742 12.6843 46.761 15.0255 42.3475 22.5568C36.6869 32.2479 33.8812 37.1076 34.0345 38.7669C34.4444 42.4725 37.2888 45.3583 58.106 55.6099C81.9291 67.3352 86.6754 67.7193 90.1561 65.54Z" fill="#1F1F22" stroke="#1F1F22" stroke-width="0.83" stroke-miterlimit="10" stroke-linecap="round"/>
<path d="M19.2913 10.7479C17.2055 12.0962 18.3898 12.649 11.8391 21.9572C8.14628 27.2211 5.70276 29.8682 6.70251 32.2126C7.12616 33.1772 8.47057 34.0188 11.2291 35.8078C12.8393 36.8684 14.2894 37.6402 15.2983 38.1572C9.97086 44.4408 9.22406 46.3004 9.58028 46.7025C9.9365 47.1045 11.1767 46.3151 13.7037 45.2215C16.7517 43.9051 19.3615 43.1211 21.19 42.6714C31.4275 50.4146 39.8318 55.3323 45.4851 58.3345C48.2873 59.8214 51.6365 61.4932 55.1257 60.4315C57.8412 59.5777 59.341 57.4328 63.4144 50.4906C68.6499 41.5358 71.2573 37.0197 71.068 35.536C70.6917 32.1116 68.0642 29.4165 48.8725 19.9725C26.8994 9.11891 22.4833 8.72913 19.2913 10.7479Z" stroke="#1F1F22" stroke-miterlimit="10" stroke-linecap="round"/>
</svg>
