<svg width="98" height="56" viewBox="0 0 98 56" fill="none" xmlns="http://www.w3.org/2000/svg">
<path d="M3 52.7271C7.11545 40.2771 11.1408 27.8066 15.4806 15.4316C19.7431 15.4316 21.1279 31.5381 22.5009 34.252C24.4741 38.1523 26.2251 42.3123 27.1811 46.5975C27.588 48.4214 27.7621 51.851 29.5212 52.7271M10.0203 41.8493C14.613 41.8493 16.8974 41.8198 20.9408 39.5183" stroke="#1F1F22" stroke-width="6" stroke-linecap="round"/>
<path d="M33.6652 15.4632C33.8562 20.155 34.1886 23.8472 36.5508 27.9674C37.9707 30.4442 40.0196 33.2098 40.4548 36.0951C41.0547 40.0725 40.5397 44.4648 40.5397 48.4742M34.9999 14.7354C35.2434 14.6876 35.3758 14.5898 35.5656 14.422C37.1495 13.0218 39.7228 12.5127 41.6862 11.9859C45.5365 10.9529 47.7969 10.6854 50.4175 13.9091C51.4586 15.1898 53.1023 17.0685 52.216 18.8097C51.3524 20.506 50.2559 22.1933 49.0976 23.7103M46.9258 25.7919C51.63 25.2785 66.3345 25.0644 62.8182 32.9986C61.1971 36.6564 58.9661 40.8011 55.6098 43.1986C52.9351 45.1093 46.5803 46.4663 44.025 48.4742" stroke="#1F1F22" stroke-width="6" stroke-linecap="round"/>
<path d="M81.7831 7.48496C81.7831 4.21024 76.376 1.4397 74.0251 4.00838C70.6668 7.67775 71.9175 13.0066 72.5467 17.3991C73.0078 20.6189 73.285 24.813 74.8741 27.7257C76.4409 30.5979 79.7679 34.1398 83.2176 34.4727C87.9054 34.925 91.0299 28.0415 94.1666 25.516" stroke="#1F1F22" stroke-width="6" stroke-linecap="round"/>
</svg>
