<svg width="68" height="42" viewBox="0 0 68 42" fill="none" xmlns="http://www.w3.org/2000/svg">
<path d="M1.70589 24.1631C2.83451 11.5818 1.39239 11.7076 2.6464 9.25429C4.59013 5.54281 9.04188 3.4669 36.1286 1.70553C59.7668 0.132866 63.7797 1.26518 66.0369 4.3476C67.0401 5.66863 67.0401 11.456 66.9774 22.9679C66.9147 31.9006 66.6639 34.7943 64.5321 37.1218C61.7733 40.0784 57.635 40.33 54.1238 40.4558C47.0386 40.7075 36.254 40.6446 22.1464 38.8832C20.8923 38.9461 10.9229 37.9396 8.79108 37.8138C5.15444 37.6251 3.39881 37.5622 2.4583 36.8702C0.201071 35.1717 1.07888 31.2715 1.70589 24.1631Z" stroke="#1F1F22" stroke-width="2" stroke-miterlimit="10" stroke-linecap="round"/>
<path d="M25.0435 12.2207C25.1248 14.2336 25.4452 16.6433 26.545 18.3626C27.1993 19.3854 27.5083 20.3689 27.5483 21.58C27.6068 23.3532 27.5443 25.0069 26.8728 26.6468C30.0872 25.9856 33.2409 25.2058 36.4844 24.6609C38.1732 24.3772 39.8574 23.9178 41.4789 23.3701C43.1526 22.8048 44.6163 22.0532 46.3864 21.7247C46.5994 21.6851 46.8251 21.657 47.056 21.6323C47.4841 21.5865 47.8165 20.1798 47.3882 20.1358L47.3491 20.1318C46.9393 20.0897 46.5924 20.0541 46.1831 19.9372C45.0588 19.6161 43.9608 19.0929 42.851 18.7102C41.7967 18.3467 40.6889 18.1617 39.6496 17.7528C37.7886 17.0205 36.1098 15.9322 34.3284 15.0435C32.5109 14.1368 30.9434 13.7423 28.9418 13.4264C27.7163 13.233 25.8996 13.2473 25.0435 12.2207Z" fill="#1F1F22" stroke="#1F1F22" stroke-linecap="round"/>
</svg>
